<svg xmlns="http://www.w3.org/2000/svg" fill="none" viewBox="0 0 17 17"><g clip-path="url(#a)"><path fill="#fff" d="M8.5 17c4.695 0 8.5-3.805 8.5-8.5C17 3.804 13.195 0 8.5 0A8.499 8.499 0 0 0 0 8.5C0 13.195 3.804 17 8.5 17zM3.89 8.316l8.195-3.16c.38-.137.712.093.59.668l-1.396 6.573c-.103.466-.38.58-.767.36l-2.125-1.566-1.025.987c-.114.114-.21.21-.429.21l.151-2.163 3.938-3.558c.172-.151-.038-.236-.264-.086L5.891 9.645l-2.098-.654c-.455-.145-.465-.456.096-.675z"/></g><defs><clipPath id="a"><path fill="#fff" d="M0 0H17V17H0z"/></clipPath></defs></svg>